# xmcd
#
# Track frame offsets:
#       150
#       17012
#       30652
#       41932
#       60282
#       77650
#       91550
#       104307
#       120420
#       137140
#
# Disc length: 2058 seconds
#
# Revision: 3
# Processed by: cddbd v1.5.2PL0 Copyright (c) Steve Scherf et al.
# Submitted via: FreeDbEdit v0.1
#
DISCID=7008080a
DTITLE=Various Artist - A Country Christmas Wonderland
DYEAR=1991
DGENRE=Christmas
TTITLE0=The Judds [Wynonna and Naomi] - Winter Wonderland
TTITLE1=Ronnie Milsap - Silver Bells
TTITLE2=Willie Nelson - Pretty Paper
TTITLE3=Alabama - Thistlehair the Christmas Bear
TTITLE4=Ronnie Milsap - O Holy Night
TTITLE5=Dolly Parton - White Christmas
TTITLE6=The Judds [Wynonna and Naomi] - Santa Claus Is Comin' to Town
TTITLE7=Alabama - Christmas in Dixie
TTITLE8=K.T. Oslin - Blue Christmas
TTITLE9=Dolly Parton - Hard Candy Christmas
EXTD=YEAR: 1991
EXTT0=
EXTT1=
EXTT2=
EXTT3=
EXTT4=
EXTT5=
EXTT6=
EXTT7=
EXTT8=
EXTT9=
PLAYORDER=
